PathFileType	4	(X/Y/Z)	./resultDataOpenSim/trcMotMarkerGrf/sub09/qtm-15-08.trc
DataRate	CameraRate	NumFrames	NumMarkers	Units	OrigDataRate	OrigDataStartFrame	OrigNumFrames
250.000000	250.000000	7	24	m	250.000000	59	466
Frame#	Time	L.Toe.Tip			R.Toe.Tip			L.Ankle.Lat			R.Ankle.Lat			L.Ankle.Med			R.Ankle.Med			L.Heel			R.Heel			L.Knee.Lat			R.Knee.Lat			L.Knee.Med			R.Knee.Med			L.Thigh.Upper			R.Thigh.Upper			L.ASIS			R.ASIS			V.Sacral			L.Acromium			R.Acromium			C7			L.Elbow			R.Elbow			L.Wrist.Lat			R.Wrist.Lat
		X1	Y1	Z1	X2	Y2	Z2	X3	Y3	Z3	X4	Y4	Z4	X5	Y5	Z5	X6	Y6	Z6	X7	Y7	Z7	X8	Y8	Z8	X9	Y9	Z9	X10	Y10	Z10	X11	Y11	Z11	X12	Y12	Z12	X13	Y13	Z13	X14	Y14	Z14	X15	Y15	Z15	X16	Y16	Z16	X17	Y17	Z17	X18	Y18	Z18	X19	Y19	Z19	X20	Y20	Z20	X21	Y21	Z21	X22	Y22	Z22	X23	Y23	Z23	X24	Y24	Z24

59	0.232	-1.3497609	0.094753854	-0.064460261	-0.65079509	0.039417609	0.063127703	-1.3683339	0.25108445	-0.10433819	-0.79801614	0.052342451	0.093906427	-1.3422259	0.23510538	-0.011141507	-0.78901983	0.092928351	0.0042314811	-1.4297463	0.29647908	-0.054082477	-0.86557695	0.031139551	0.043395525	-0.99503503	0.425172	-0.12955158	-0.75017234	0.50472738	0.16110214	-0.98265373	0.41140336	-0.0043150476	-0.76754185	0.4943217	0.034467546	-0.97454464	0.83185303	-0.14644756	-0.94378305	0.86292153	0.22460143	-0.88298944	0.91912116	-0.096014215	-0.86954698	0.94806774	0.14250439	-1.0454285	0.98988639	0.02636252	-0.86519764	1.3844883	-0.13167529	-0.89977986	1.3896644	0.19513298	-0.95114378	1.4423764	0.029426431	-0.95761947	1.019656	-0.2024645	-1.0281742	1.0456007	0.2687214	-0.73632123	0.86750337	-0.17525446	-0.89492511	0.80759638	0.27873584
60	0.236	-1.3350936	0.096337417	-0.065620266	-0.6508768	0.039429094	0.063141487	-1.3548258	0.2525524	-0.10414535	-0.79817989	0.052396312	0.093981323	-1.3287543	0.23624293	-0.010995544	-0.78897723	0.092992709	0.0043357485	-1.4166812	0.29758139	-0.05432368	-0.86568567	0.031166499	0.043359385	-0.98191705	0.42625223	-0.1288722	-0.74727398	0.50453518	0.16146586	-0.9686347	0.41216812	-0.0033931855	-0.76479979	0.49416795	0.034821313	-0.96820609	0.83301733	-0.14627703	-0.93786901	0.86472956	0.22479868	-0.87707556	0.92065829	-0.095840167	-0.86347885	0.94967688	0.14251955	-1.039419	0.99155244	0.026580768	-0.85949612	1.3860262	-0.13158871	-0.89343704	1.3911503	0.19533154	-0.94533164	1.4440295	0.029297746	-0.95196331	1.0213608	-0.20140027	-1.0206629	1.0463419	0.26906318	-0.73350926	0.86597753	-0.17569845	-0.88469187	0.80960598	0.27785546
61	0.24	-1.3200785	0.097684986	-0.066691737	-0.65098087	0.039456765	0.06318145	-1.3411542	0.25368416	-0.10395717	-0.79836896	0.052447677	0.094077164	-1.3153248	0.23716231	-0.010770204	-0.78894097	0.093074839	0.0044630205	-1.4035836	0.29821013	-0.054317784	-0.86579861	0.031192738	0.043312629	-0.96886644	0.42751387	-0.12815531	-0.74452208	0.50433587	0.16182807	-0.95515468	0.41311521	-0.0024859331	-0.76223535	0.49399771	0.035311329	-0.9617863	0.83431004	-0.14603296	-0.93124588	0.86669408	0.22510639	-0.87120343	0.92228209	-0.095659852	-0.85732238	0.95132721	0.14256808	-1.033454	0.99326911	0.026801529	-0.85384309	1.3876443	-0.13150021	-0.88714059	1.392717	0.19553266	-0.93942052	1.4456842	0.029447535	-0.9466604	1.0231923	-0.2005511	-1.0130988	1.0471645	0.26936511	-0.73078811	0.86460701	-0.17617234	-0.87449131	0.81177916	0.2769722
62	0.244	-1.3047449	0.098805696	-0.067654358	-0.65110129	0.039494242	0.063253246	-1.3273425	0.25449475	-0.10377	-0.7985852	0.052484773	0.094199416	-1.302199	0.23782599	-0.010389507	-0.78891195	0.093169079	0.004612504	-1.3904379	0.29842752	-0.054192559	-0.86590408	0.031210936	0.043254239	-0.95592483	0.42892254	-0.12739385	-0.74182584	0.50410041	0.16213105	-0.94193863	0.4142414	-0.0016129378	-0.75983463	0.49382844	0.035905542	-0.95523822	0.83573144	-0.14566876	-0.92451046	0.86871671	0.22542747	-0.86539991	0.92398621	-0.095482929	-0.85121983	0.95299038	0.14263711	-1.0275508	0.99498589	0.027082775	-0.84824677	1.3893386	-0.13141346	-0.88088653	1.3943624	0.19573298	-0.93344812	1.4473686	0.029777799	-0.9416316	1.025129	-0.19981825	-1.0054658	1.0480694	0.26961503	-0.72817302	0.86339535	-0.17668011	-0.86428535	0.81412815	0.2760969
63	0.248	-1.2891619	0.099698427	-0.068458125	-0.65123116	0.039532909	0.063360965	-1.3134113	0.25500713	-0.10358801	-0.79884347	0.052509658	0.094362468	-1.2896078	0.23818632	-0.0098060538	-0.78889548	0.093268432	0.0047840946	-1.3772289	0.29827545	-0.054054417	-0.86599091	0.031223051	0.043189053	-0.94313168	0.43045612	-0.12658671	-0.73915262	0.50382182	0.16237513	-0.92871338	0.41554671	-0.00075428067	-0.75756084	0.49367248	0.036526369	-0.94860739	0.83727098	-0.14522373	-0.91806802	0.87071303	0.22570613	-0.8596583	0.92576773	-0.095304756	-0.84521739	0.95465023	0.14271649	-1.0216958	0.99668791	0.02743655	-0.84270802	1.3911024	-0.13133109	-0.8746724	1.3960849	0.19593523	-0.92746893	1.4490892	0.030159722	-0.93669986	1.0271494	-0.19903086	-0.99782864	1.0490616	0.2698399	-0.72566278	0.86233682	-0.1772124	-0.85406414	0.81666052	0.27523673
64	0.252	-1.2734004	0.10035886	-0.069047181	-0.65136268	0.039567357	0.063504519	-1.2993762	0.25524132	-0.10341857	-0.79911046	0.052531447	0.094540625	-1.2772546	0.23826587	-0.0091147547	-0.78889622	0.093369951	0.0049759988	-1.3639528	0.29776991	-0.053953498	-0.86605386	0.031241066	0.043125036	-0.93047093	0.43212123	-0.12573556	-0.73658661	0.50352081	0.16261517	-0.91551613	0.41703919	0.00013297076	-0.75539636	0.49353886	0.037120072	-0.94201438	0.83890068	-0.14481339	-0.91216673	0.87262693	0.22593372	-0.85394908	0.92763042	-0.095110944	-0.83929613	0.95630202	0.14280823	-1.0158502	0.99841827	0.02781193	-0.83722237	1.3929315	-0.13125034	-0.86848709	1.397877	0.19614342	-0.92150992	1.4508379	0.030529572	-0.9317778	1.0292498	-0.19807187	-0.99032162	1.0501477	0.27010379	-0.72324823	0.86143039	-0.1777637	-0.84391806	0.81935363	0.27438635
65	0.256	-1.2574463	0.10080027	-0.069425423	-0.65148901	0.039596882	0.0636781	-1.2852438	0.25520668	-0.10326323	-0.79930104	0.052559475	0.094663003	-1.2641485	0.23818229	-0.0085999618	-0.78891478	0.093474104	0.0051821599	-1.350603	0.29691634	-0.053915106	-0.86609525	0.031275715	0.043065532	-0.91779162	0.4339366	-0.12484766	-0.73424082	0.50323427	0.16291057	-0.90248254	0.41873159	0.0010626177	-0.75330423	0.49343195	0.037661342	-0.93556966	0.84059371	-0.14453777	-0.90690235	0.8744321	0.22612909	-0.84824889	0.92957953	-0.094887892	-0.83338444	0.957948	0.1429212	-1.0099831	1.0002244	0.028156648	-0.83178386	1.3948185	-0.13116483	-0.86230798	1.399722	0.19635584	-0.91557294	1.4526069	0.030877985	-0.92685381	1.0314433	-0.19684586	-0.9830432	1.0513282	0.27045605	-0.72092005	0.86068096	-0.17834131	-0.83399427	0.82215008	0.27353479
